<?xml version="1.0" standalone="no"?>
<!DOCTYPE svg PUBLIC "-//W3C//DTD SVG 20010904//EN"
 "http://www.w3.org/TR/2001/REC-SVG-20010904/DTD/svg10.dtd">
<svg version="1.0" xmlns="http://www.w3.org/2000/svg"
 width="684.000000pt" height="684.000000pt" viewBox="0 0 684.000000 684.000000"
 preserveAspectRatio="xMidYMid meet">
<metadata>
Created by potrace 1.14, written by Peter Selinger 2001-2017
</metadata>
<g transform="translate(0.000000,684.000000) scale(0.100000,-0.100000)"
fill="#000000" stroke="none">
<path d="M3130 6329 c-463 -49 -836 -155 -1245 -354 -276 -133 -603 -363 -794
-558 l-63 -65 0 -132 c1 -73 3 -134 5 -136 2 -2 212 -4 468 -5 255 -1 529 -5
609 -8 80 -3 161 -5 181 -3 l36 3 -5 303 c-3 167 -2 315 2 330 l6 26 1571 -2
c1398 -3 1568 -1 1549 12 -656 455 -1519 674 -2320 589z"/>
<path d="M3493 5062 l-1163 -2 0 -320 0 -320 2098 -2 c1153 -2 2100 -1 2104 2
14 11 -160 344 -250 480 -49 75 -96 141 -104 148 -18 14 -825 19 -2685 14z"/>
<path d="M1036 4401 c-8 -13 -9 -1268 -1 -1281 3 -5 32 -9 63 -8 31 1 102 1
157 0 55 -1 1047 -2 2205 -2 1158 -1 2365 -2 2682 -3 l577 -2 8 85 c10 102 7
409 -4 500 l-8 65 -2195 0 -2195 0 -3 328 -2 327 -640 0 c-366 0 -641 -4 -644
-9z"/>
<path d="M339 4215 c-40 -98 -86 -330 -105 -525 -18 -184 -16 -530 3 -565 9
-17 19 -19 62 -17 43 3 52 8 56 25 3 12 4 270 3 572 -3 516 -4 548 -19 510z"/>
<path d="M5362 2588 c-24 -39 -41 -72 -39 -74 2 -3 24 27 47 66 23 39 41 72
39 74 -2 2 -23 -28 -47 -66z"/>
<path d="M5274 2456 c-14 -8 -715 -11 -2448 -11 l-2427 0 6 -25 c14 -58 191
-394 262 -498 l78 -114 2725 0 2725 1 88 133 c79 119 226 394 254 473 l10 30
-611 -2 c-483 -1 -614 1 -626 11 -11 10 -20 10 -36 2z"/>
<path d="M1430 1139 c0 -32 273 -198 530 -323 183 -89 419 -177 580 -216 159
-39 217 -52 315 -69 198 -35 347 -44 653 -38 351 7 514 28 832 107 355 89 739
256 1036 451 74 49 134 90 134 91 0 2 -918 3 -2040 3 -1122 0 -2040 -3 -2040
-6z"/>
</g>
</svg>
